<svg width="38" height="38" viewBox="0 0 38 38" fill="none" xmlns="http://www.w3.org/2000/svg">
<path d="M36.4324 19C36.4324 23.6209 34.5968 28.0525 31.3293 31.3199C28.0619 34.5874 23.6303 36.423 19.0094 36.423C16.7214 36.423 14.4558 35.9724 12.3419 35.0968C10.2281 34.2212 8.30738 32.9378 6.6895 31.3199C3.42206 28.0525 1.58643 23.6209 1.58643 19C1.58643 14.3792 3.42206 9.94755 6.6895 6.6801C9.95695 3.41266 14.3886 1.57703 19.0094 1.57703C23.6303 1.57703 28.0619 3.41266 31.3293 6.6801C34.5968 9.94755 36.4324 14.3792 36.4324 19ZM33.2404 19C33.2404 15.2257 31.7411 11.606 29.0723 8.93719C26.4034 6.26836 22.7837 4.76903 19.0094 4.76903C15.2351 4.76903 11.6154 6.26836 8.94659 8.93719C6.27776 11.606 4.77843 15.2257 4.77843 19C4.77843 22.7743 6.27776 26.394 8.94659 29.0629C11.6154 31.7317 15.2351 33.231 19.0094 33.231C22.7837 33.231 26.4034 31.7317 29.0723 29.0629C31.7411 26.394 33.2404 22.7743 33.2404 19Z" fill="currentColor"/>
<path d="M21.6601 17.195L27.7021 18.0215C27.9406 18.0547 28.159 18.173 28.3171 18.3545C28.4752 18.5361 28.5623 18.7688 28.5623 19.0095C28.5623 19.2503 28.4752 19.4829 28.3171 19.6645C28.159 19.8461 27.9406 19.9644 27.7021 19.9975L21.6601 20.824C21.4436 20.8533 21.2427 20.9528 21.0883 21.1072C20.9338 21.2617 20.8343 21.4626 20.8051 21.679L19.9786 27.721C19.9455 27.9595 19.8272 28.1779 19.6456 28.336C19.464 28.4941 19.2314 28.5812 18.9906 28.5812C18.7498 28.5812 18.5172 28.4941 18.3356 28.336C18.154 28.1779 18.0358 27.9595 18.0026 27.721L17.1761 21.679C17.1469 21.4626 17.0474 21.2617 16.8929 21.1072C16.7385 20.9528 16.5376 20.8533 16.3211 20.824L10.2791 19.9975C10.0406 19.9644 9.82221 19.8461 9.66412 19.6645C9.50603 19.4829 9.41895 19.2503 9.41895 19.0095C9.41895 18.7688 9.50603 18.5361 9.66412 18.3545C9.82221 18.173 10.0406 18.0547 10.2791 18.0215L16.3211 17.195C16.5376 17.1658 16.7385 17.0663 16.8929 16.9118C17.0474 16.7574 17.1469 16.5565 17.1761 16.34L18.0026 10.298C18.0358 10.0596 18.154 9.84113 18.3356 9.68304C18.5172 9.52495 18.7498 9.43787 18.9906 9.43787C19.2314 9.43787 19.464 9.52495 19.6456 9.68304C19.8272 9.84113 19.9455 10.0596 19.9786 10.298L20.8051 16.34C20.8343 16.5565 20.9338 16.7574 21.0883 16.9118C21.2427 17.0663 21.4436 17.1658 21.6601 17.195Z" fill="currentColor"/>
</svg>
