<svg width="35" height="35" viewBox="0 0 35 35" fill="none" xmlns="http://www.w3.org/2000/svg">
<path d="M17.675 29.6594L17.5 29.8501L17.3075 29.6594C8.995 21.4387 3.5 16.0027 3.5 10.4905C3.5 6.67575 6.125 3.81471 9.625 3.81471C12.32 3.81471 14.945 5.72207 15.8725 8.31608H19.1275C20.055 5.72207 22.68 3.81471 25.375 3.81471C28.875 3.81471 31.5 6.67575 31.5 10.4905C31.5 16.0027 26.005 21.4387 17.675 29.6594ZM25.375 0C22.33 0 19.4075 1.54496 17.5 3.9673C15.5925 1.54496 12.67 0 9.625 0C4.235 0 0 4.59673 0 10.4905C0 17.6812 5.95 23.5749 14.9625 32.4823L17.5 35L20.0375 32.4823C29.05 23.5749 35 17.6812 35 10.4905C35 4.59673 30.765 0 25.375 0Z" fill="currentColor"/>
</svg>
