<svg width="408" height="129" viewBox="0 0 408 129" fill="none" xmlns="http://www.w3.org/2000/svg">
<path d="M349.441 5.23993C351.059 6.52065 352.639 7.82575 354.049 9.33593C354.049 9.67385 354.049 10.0118 354.049 10.3599C354.387 10.3599 354.725 10.3599 355.073 10.3599C355.073 10.6979 355.073 11.0358 355.073 11.3839C355.411 11.3839 355.749 11.3839 356.097 11.3839C356.612 12.374 357.124 13.3665 357.633 14.3599C357.918 14.9124 358.203 15.4648 358.497 16.0339C359.169 17.5279 359.169 17.5279 359.169 19.0639C359.664 18.8906 360.16 18.7174 360.671 18.5388C362.518 17.8953 364.368 17.2611 366.219 16.6296C367.018 16.3554 367.817 16.0788 368.614 15.7996C369.764 15.3977 370.916 15.005 372.069 14.6139C372.599 14.4252 372.599 14.4252 373.141 14.2326C375.339 13.4991 376.897 13.3239 379.137 13.9439C381.7 15.4364 382.412 17.3764 383.265 20.0879C383.411 20.5285 383.558 20.969 383.709 21.4229C384.047 22.4428 384.381 23.4639 384.713 24.4859C385.335 26.399 385.969 28.3079 386.607 30.2159C386.849 30.9426 387.092 31.6692 387.335 32.3958C387.459 32.7689 387.584 33.1419 387.712 33.5263C388.103 34.6989 388.493 35.8719 388.882 37.0451C390.814 42.8632 392.787 48.6663 394.775 54.4657C397.688 62.969 400.536 71.4893 403.275 80.0508C403.508 80.7785 403.741 81.5062 403.975 82.2339C404.084 82.5761 404.193 82.9182 404.306 83.2707C405.102 85.7461 405.995 88.1731 406.966 90.5849C407.529 92.5977 407.263 94.5437 406.273 96.3759C404.117 98.4442 401.835 99.2128 399.056 100.112C398.591 100.267 398.126 100.422 397.647 100.582C396.111 101.093 394.573 101.596 393.035 102.1C391.958 102.457 390.882 102.814 389.806 103.171C386.969 104.112 384.129 105.047 381.289 105.98C378.431 106.921 375.574 107.868 372.718 108.814C369.49 109.883 366.262 110.95 363.033 112.014C362.54 112.177 362.047 112.34 361.538 112.507C360.578 112.823 359.618 113.138 358.658 113.453C356.382 114.201 354.111 114.96 351.847 115.746C351.421 115.892 350.995 116.039 350.556 116.19C349.759 116.465 348.962 116.744 348.168 117.027C345.516 117.937 345.516 117.937 343.809 117.368C343.995 116.956 343.995 116.956 344.185 116.536C344.356 116.135 344.528 115.733 344.705 115.32C344.897 114.871 345.09 114.422 345.289 113.959C345.934 112.239 345.934 112.239 346.02 110.304C346.22 108.015 346.56 105.968 347.905 104.056C351.139 101.679 355.393 100.876 359.201 99.8319C360.314 99.4998 361.426 99.164 362.537 98.8248C364.777 98.1441 367.019 97.479 369.266 96.8247C373.828 95.4811 378.303 93.8986 382.785 92.3119C384.203 91.8126 385.623 91.3178 387.045 90.8259C387.623 90.6234 388.201 90.4208 388.797 90.2121C390.355 89.734 391.861 89.435 393.473 89.2079C393.325 88.7812 393.178 88.3544 393.026 87.9147C388.492 74.7627 384.067 61.5741 379.661 48.3785C379.199 46.996 378.737 45.6137 378.274 44.2314C377.537 42.029 376.802 39.8261 376.068 37.6228C375.792 36.7966 375.516 35.9706 375.24 35.1448C374.859 34.0067 374.48 32.868 374.101 31.7291C373.988 31.3923 373.874 31.0554 373.758 30.7084C372.993 28.3969 372.993 28.3969 372.993 27.2559C372.519 27.42 372.045 27.5841 371.556 27.7532C361.484 31.2354 351.389 34.6323 341.248 37.9086C333.379 40.4529 325.545 43.0913 317.728 45.7938C312.114 47.731 306.472 49.5576 300.801 51.3199C301.628 53.8774 302.457 56.4347 303.285 58.9918C303.566 59.8581 303.846 60.7244 304.127 61.5908C304.399 62.4325 304.672 63.2742 304.944 64.1159C305.215 64.9507 305.485 65.7857 305.755 66.6209C306.398 68.6079 307.053 70.5899 307.736 72.5637C307.858 72.9191 307.98 73.2746 308.106 73.6408C308.437 74.5995 308.773 75.5567 309.108 76.5138C309.505 77.9439 309.505 77.9439 308.993 78.9679C307.233 78.9828 305.473 78.9919 303.713 78.9999C303.213 79.0042 302.713 79.0085 302.198 79.0129C301.477 79.0154 301.477 79.0154 300.743 79.0179C300.079 79.022 300.079 79.022 299.402 79.0261C298.241 78.9679 298.241 78.9679 296.705 78.4559C296.17 77.2167 295.74 76.0345 295.337 74.7519C295.212 74.3723 295.087 73.9926 294.959 73.6014C294.554 72.3628 294.157 71.1215 293.761 69.8799C293.486 69.033 293.211 68.1862 292.935 67.3396C292.524 66.0766 292.114 64.8134 291.706 63.5494C290.948 61.202 290.171 58.8638 289.361 56.5339C289.108 55.8036 289.108 55.8036 288.85 55.0584C288.55 54.1961 288.247 53.335 287.939 52.4754C286.986 49.6981 286.457 47.1792 287.457 44.3119C290.211 41.2236 295.422 40.2289 299.233 38.9359C300.283 38.5772 301.333 38.2179 302.383 37.8579C303.071 37.6241 303.071 37.6241 303.773 37.3856C304.898 37.0087 304.898 37.0087 305.921 36.4719C305.847 36.1736 305.773 35.8753 305.697 35.5679C303.603 26.3218 305.748 18.8405 310.529 10.8719C310.867 10.8719 311.205 10.8719 311.553 10.8719C311.553 10.534 311.553 10.1961 311.553 9.84793C311.891 9.84793 312.229 9.84793 312.577 9.84793C312.696 9.55093 312.816 9.25393 312.939 8.94793C315.581 4.36669 322.134 2.18197 326.913 0.631934C334.946 -1.0705 342.663 0.73349 349.441 5.23993ZM320.769 17.5279C317.621 21.6462 316.848 25.7263 317.185 30.8399C317.336 31.5273 317.499 32.2126 317.697 32.8879C319.944 32.5057 322.061 31.8183 324.215 31.0899C324.598 30.9616 324.982 30.8332 325.377 30.701C326.604 30.2901 327.83 29.8771 329.057 29.4639C329.855 29.1961 330.653 28.9285 331.452 28.6609C333.049 28.1257 334.645 27.5897 336.241 27.0532C340.127 25.7482 344.016 24.4545 347.905 23.1599C345.853 18.0197 343.122 15.4325 338.177 12.9199C336.639 12.4146 336.639 12.4146 335.105 12.4079C334.747 12.3888 334.389 12.3697 334.021 12.3499C328.978 12.1886 324.309 13.8344 320.769 17.5279Z" fill="white"/>
<path d="M134.051 29.7578C134.563 29.7605 135.075 29.7632 135.603 29.7659C136.156 29.7676 136.708 29.7692 137.278 29.7709C138.151 29.7774 138.151 29.7774 139.041 29.7839C139.917 29.7874 139.917 29.7874 140.81 29.7909C142.258 29.797 143.705 29.8054 145.153 29.8159C147.657 34.1137 150.058 38.4604 152.417 42.8399C154.644 46.9733 156.911 51.0794 159.233 55.1599C161.622 59.3668 163.983 63.5879 166.305 67.8319C166.597 68.3596 166.888 68.8873 167.189 69.4309C167.455 69.9197 167.721 70.4084 167.995 70.9119C168.231 71.3437 168.468 71.7756 168.711 72.2204C169.217 73.3359 169.217 73.3359 169.217 74.8719C165.5 74.8719 161.783 74.8719 157.953 74.8719C156.432 71.9996 154.912 69.1273 153.345 66.1679C143.883 65.999 134.421 65.83 124.673 65.6559C124.155 67.2107 123.638 68.767 123.191 70.3438C122.388 72.3489 121.709 73.4468 120.065 74.8719C116.715 75.942 113.11 75.7752 109.632 75.7011C107.947 75.6721 106.274 75.7111 104.59 75.7569C96.3243 75.8083 96.3243 75.8083 93.4339 73.4451C92.0882 72.1086 90.9766 70.6631 89.9326 69.0831C88.9632 67.6528 87.8353 66.3672 86.7209 65.0479C86.3605 64.5972 86.0001 64.1464 85.6289 63.6819C84.2634 61.8942 84.2634 61.8942 82.1396 61.3967C81.1502 61.3726 81.1502 61.3726 80.1409 61.3479C79.79 61.338 79.4392 61.3281 79.0777 61.3179C77.9562 61.2873 76.8346 61.2635 75.7129 61.2399C74.9529 61.2204 74.1929 61.2004 73.4329 61.1799C71.5689 61.1299 69.7051 61.0892 67.8409 61.0479C67.8409 65.6099 67.8409 70.1718 67.8409 74.8719C64.2927 74.8719 60.7445 74.8719 57.0889 74.8719C57.0889 60.1724 57.0889 45.4729 57.0889 30.3279C63.2137 30.2857 69.3385 30.2435 75.6489 30.1999C77.571 30.1813 79.493 30.1626 81.4734 30.1434C83.8506 30.1342 83.8506 30.1342 84.9693 30.1325C85.7379 30.1294 86.5065 30.1222 87.2751 30.1117C93.4722 30.0313 99.373 30.4578 104.355 34.5799C107.415 37.6616 108.565 41.0972 108.961 45.3679C108.61 49.4328 107.456 53.431 104.319 56.2119C102.036 58.0082 99.655 59.3148 97.0249 60.5359C97.304 60.8402 97.5832 61.1445 97.8709 61.4579C100.392 64.2293 102.808 67.0568 105.145 69.9859C106.296 71.3529 107.531 72.5918 108.801 73.8479C109.03 73.4133 109.258 72.9786 109.494 72.5308C113.453 65.0172 117.422 57.5186 121.646 50.1496C124.449 45.2351 127.092 40.237 129.734 35.2347C129.905 34.9121 130.075 34.5895 130.251 34.2572C130.718 33.375 131.183 32.4921 131.648 31.6092C132.628 29.8275 132.628 29.8275 134.051 29.7578ZM67.8409 39.0319C67.8409 43.4249 67.8409 47.8179 67.8409 52.3439C70.4899 52.3558 73.1387 52.366 75.7877 52.3721C76.6859 52.3746 77.5841 52.3781 78.4822 52.3826C88.3692 53.1242 88.3692 53.1242 97.0249 49.7839C97.7152 48.4033 97.6234 47.2926 97.6329 45.7519C97.6401 45.2147 97.6474 44.6775 97.6549 44.1239C97.494 42.0685 97.1309 41.0996 95.5639 39.7516C93.0813 38.6426 90.678 38.8438 87.9909 38.8819C87.1269 38.8852 87.1269 38.8852 86.2455 38.8885C84.4092 38.8971 82.5731 38.9164 80.7369 38.9359C79.4905 38.9436 78.2442 38.9507 76.9979 38.9569C73.9453 38.9725 70.8934 39.0026 67.8409 39.0319ZM139.009 40.0559C136.678 44.1051 134.373 48.168 132.097 52.2479C131.869 52.6547 131.641 53.0616 131.406 53.4807C131.196 53.8586 130.986 54.2366 130.769 54.6259C130.58 54.9637 130.392 55.3015 130.198 55.6496C129.754 56.3679 129.754 56.3679 129.793 56.9519C135.875 56.9519 141.958 56.9519 148.225 56.9519C147.388 54.8598 146.486 52.9826 145.421 51.0059C145.252 50.6914 145.083 50.3768 144.909 50.0527C144.373 49.0557 143.835 48.0598 143.297 47.0639C142.931 46.385 142.566 45.706 142.201 45.0269C141.309 43.3692 140.415 41.7123 139.521 40.0559C139.352 40.0559 139.183 40.0559 139.009 40.0559Z" fill="#D8EFB7"/>
<path d="M48.3848 86.6477C51.8845 89.3848 53.9407 92.7658 55.5528 96.8877C55.5528 97.3946 55.5528 97.9015 55.5528 98.4237C53.74 98.5433 51.9283 98.6156 50.1128 98.6797C49.3455 98.7312 49.3455 98.7312 48.5628 98.7837C44.806 98.8832 44.806 98.8832 43.2989 97.5443C42.4948 96.4497 42.4948 96.4497 41.8496 95.3553C40.2791 92.8051 37.3185 91.3249 34.5128 90.4937C28.6578 89.4628 22.8655 89.6794 17.6648 92.7917C15.8515 94.0815 14.7245 95.2036 13.6968 97.1757C13.4882 97.5671 13.2796 97.9585 13.0648 98.3617C11.4466 101.741 11.4601 105.964 12.4008 109.558C14.2456 113.969 17.7854 116.665 22.1268 118.452C27.3455 119.854 33.0329 119.379 37.8988 117.104C40.7014 115.427 41.9 114.039 43.7768 111.224C38.8769 111.224 33.9771 111.224 28.9288 111.224C28.9288 109.027 28.9288 106.831 28.9288 104.568C37.8836 104.568 46.8385 104.568 56.0648 104.568C56.0648 112.002 56.0648 119.436 56.0648 127.096C53.8683 127.096 51.6718 127.096 49.4088 127.096C48.9019 125.744 48.395 124.392 47.8728 123C47.4207 123.241 46.9686 123.482 46.5028 123.73C45.8822 124.052 45.2616 124.374 44.6408 124.696C44.3461 124.854 44.0514 125.012 43.7478 125.175C38.8863 127.671 34.1248 128.372 28.7048 128.312C28.1712 128.318 27.6375 128.324 27.0878 128.33C18.9893 128.3 11.7779 125.633 5.85476 120.014C1.91422 115.596 -0.0442706 110.562 0.000759068 104.696C0.00405907 104.245 0.00735907 103.795 0.0107591 103.331C0.182099 97.2022 2.62132 92.5279 6.91276 88.1837C18.2321 78.4105 36.3686 78.1421 48.3848 86.6477Z" fill="#D3F1A7"/>
<path d="M60.6729 82.5517C66.7977 82.5095 72.9225 82.4673 79.2329 82.4237C81.1549 82.4051 83.077 82.3865 85.0574 82.3672C87.4346 82.358 87.4346 82.358 88.5533 82.3563C89.3219 82.3532 90.0905 82.346 90.8591 82.3355C97.0562 82.2551 102.957 82.6816 107.939 86.8037C110.999 89.8854 112.149 93.321 112.545 97.5917C112.194 101.657 111.04 105.655 107.903 108.436C105.619 110.232 103.239 111.539 100.609 112.76C100.888 113.064 101.167 113.368 101.455 113.682C103.988 116.466 106.423 119.309 108.791 122.236C109.646 123.291 110.514 124.332 111.393 125.368C112.385 126.584 112.385 126.584 112.385 127.096C100.125 128.247 100.125 128.247 96.9829 125.812C95.637 124.464 94.5565 122.956 93.5311 121.355C92.5699 119.894 91.4353 118.606 90.3049 117.272C89.9445 116.821 89.5841 116.37 89.2129 115.906C87.8474 114.118 87.8474 114.118 85.7236 113.62C84.7342 113.596 84.7342 113.596 83.7249 113.572C83.374 113.562 83.0232 113.552 82.6617 113.542C81.5401 113.511 80.4186 113.487 79.2969 113.464C78.5368 113.444 77.7768 113.424 77.0169 113.404C75.1529 113.354 73.2891 113.313 71.4249 113.272C71.4249 117.834 71.4249 122.396 71.4249 127.096C67.8767 127.096 64.3285 127.096 60.6729 127.096C60.6729 112.396 60.6729 97.6967 60.6729 82.5517ZM71.4249 91.2557C71.4249 95.6487 71.4249 100.042 71.4249 104.568C74.0738 104.58 76.7227 104.59 79.3717 104.596C80.2699 104.598 81.1681 104.602 82.0662 104.606C91.9532 105.348 91.9532 105.348 100.609 102.008C101.299 100.627 101.207 99.5164 101.217 97.9757C101.224 97.4385 101.231 96.9013 101.239 96.3477C101.078 94.2923 100.715 93.3234 99.1479 91.9754C96.6653 90.8664 94.262 91.0676 91.5749 91.1057C90.7109 91.109 90.7109 91.109 89.8295 91.1123C87.9932 91.1209 86.1571 91.1402 84.3209 91.1597C83.0745 91.1674 81.8282 91.1745 80.5819 91.1807C77.5293 91.1964 74.4774 91.2264 71.4249 91.2557Z" fill="#D3F1A8"/>
<path d="M235.265 82.5518C246.529 82.5518 246.529 82.5518 250.561 85.9118C251.347 86.8609 252.132 87.8104 252.895 88.778C253.712 89.737 254.564 90.5204 255.525 91.3338C257.432 92.9494 259.201 94.6683 260.961 96.4398C261.243 96.7237 261.526 97.0077 261.817 97.3003C262.991 98.4836 264.162 99.6692 265.334 100.855C269.678 105.269 269.678 105.269 274.289 109.4C275.5 110.462 276.622 111.621 277.761 112.76C277.93 102.791 278.099 92.8225 278.273 82.5518C281.821 82.5518 285.369 82.5518 289.025 82.5518C289.025 97.4202 289.025 112.289 289.025 127.608C278.273 127.608 278.273 127.608 275.553 125.528C274.911 124.695 274.28 123.853 273.665 123C273.064 122.447 272.445 121.912 271.809 121.4C269.67 119.57 267.709 117.575 265.729 115.576C263.516 113.341 261.302 111.169 258.895 109.142C256.957 107.401 255.147 105.526 253.325 103.665C251.137 101.445 248.892 99.4674 246.529 97.3998C246.36 107.368 246.191 117.337 246.017 127.608C242.469 127.608 238.921 127.608 235.265 127.608C235.265 112.739 235.265 97.8708 235.265 82.5518Z" fill="#D3F1A8"/>
<path d="M225.025 30.3281C240.4 30.3281 255.776 30.3281 271.617 30.3281C271.617 33.2004 271.617 36.0728 271.617 39.0321C259.79 39.0321 247.962 39.0321 235.777 39.0321C235.777 41.9044 235.777 44.7768 235.777 47.7361C245.915 47.7361 256.052 47.7361 266.497 47.7361C266.497 50.6084 266.497 53.4808 266.497 56.4401C256.359 56.4401 246.222 56.4401 235.777 56.4401C235.777 59.8193 235.777 63.1985 235.777 66.6801C247.604 66.6801 259.431 66.6801 271.617 66.6801C271.617 69.5524 271.617 72.4248 271.617 75.3841C256.242 75.3841 240.866 75.3841 225.025 75.3841C225.025 60.5156 225.025 45.6472 225.025 30.3281Z" fill="#D8EFB6"/>
<path d="M295.169 82.5521C299.847 82.5098 304.525 82.4676 309.345 82.4241C310.808 82.4054 312.271 82.3868 313.778 82.3676C314.959 82.3616 316.139 82.3564 317.319 82.3521C318.213 82.3363 318.213 82.3363 319.125 82.3203C326.24 82.3173 332.547 84.4138 337.829 89.2781C341.962 93.6479 343.718 98.7573 343.969 104.728C343.762 111.232 341.542 116.854 336.801 121.368C327.878 128.576 317.107 127.684 306.305 127.64C302.63 127.63 298.955 127.619 295.169 127.608C295.169 112.74 295.169 97.8711 295.169 82.5521ZM305.921 91.7681C305.921 100.554 305.921 109.34 305.921 118.392C318.192 119.191 318.192 119.191 329.327 114.552C331.857 111.88 333.076 108.715 333.249 105.048C332.884 101.221 331.461 97.6437 328.539 95.0281C325.297 92.4714 322.588 91.6347 318.421 91.6681C317.435 91.6719 317.435 91.6719 316.428 91.6758C315.187 91.6898 315.187 91.6898 313.921 91.7041C311.281 91.7252 308.641 91.7463 305.921 91.7681Z" fill="#D3F1A8"/>
<path d="M171.777 30.3279C176.455 30.2857 181.133 30.2435 185.953 30.1999C187.416 30.1813 188.879 30.1627 190.386 30.1434C191.566 30.1375 192.747 30.1322 193.927 30.1279C194.821 30.1122 194.821 30.1122 195.733 30.0962C202.848 30.0932 209.155 32.1897 214.437 37.0539C218.57 41.4238 220.326 46.5332 220.577 52.5039C220.37 59.0081 218.15 64.6298 213.409 69.1439C204.486 76.3517 193.715 75.4598 182.913 75.4159C179.238 75.4054 175.563 75.3948 171.777 75.3839C171.777 60.5155 171.777 45.647 171.777 30.3279ZM182.529 39.5439C182.529 48.3299 182.529 57.1158 182.529 66.1679C194.8 66.9668 194.8 66.9668 205.935 62.3279C208.465 59.6554 209.684 56.4912 209.857 52.8239C209.492 48.997 208.069 45.4196 205.147 42.8039C201.905 40.2473 199.196 39.4106 195.029 39.4439C194.042 39.4478 194.042 39.4478 193.036 39.4517C191.795 39.4657 191.795 39.4657 190.529 39.4799C187.889 39.5011 185.249 39.5222 182.529 39.5439Z" fill="#D8EFB6"/>
<path d="M163.073 86.6479C167.705 90.5427 171.327 95.2754 171.863 101.468C172.251 108.525 171.325 113.865 166.657 119.416C161.607 124.863 154.618 127.988 147.211 128.36C146.152 128.377 145.092 128.382 144.033 128.376C143.474 128.373 142.915 128.37 142.34 128.367C134.248 128.19 127.559 125.588 121.473 120.152C116.978 115.425 115.277 109.571 115.349 103.208C115.721 97.3098 118.708 92.1242 122.977 88.1219C133.941 79.2134 151.424 78.5527 163.073 86.6479ZM129.601 95.7459C127.092 99.1895 126.101 102.91 126.721 107.128C127.628 111.016 129.086 113.972 132.353 116.344C137.753 119.539 143.622 120.445 149.791 119.066C154.332 117.359 157.919 114.633 160.001 110.2C161.36 106.828 161.348 103.253 160.091 99.8379C159.602 98.811 159.066 97.8532 158.465 96.8879C158.19 96.4444 157.916 96.0009 157.633 95.5439C153.804 91.7148 149.131 90.0215 143.809 90.0079C138.141 90.0217 133.498 91.4181 129.601 95.7459Z" fill="#D3F1A8"/>
<path d="M175.873 82.04C179.59 82.04 183.307 82.04 187.137 82.04C187.142 82.8224 187.146 83.6048 187.151 84.4109C187.172 87.3281 187.206 90.2449 187.243 93.1619C187.258 94.4217 187.268 95.6816 187.276 96.9414C187.287 98.7579 187.311 100.574 187.337 102.39C187.338 102.949 187.338 103.507 187.339 104.083C187.41 107.856 187.858 111.402 190.611 114.201C194.915 117.827 200.096 118.876 205.595 118.62C209.5 118.18 212.948 116.985 215.617 114.008C218.566 110.138 218.456 106.029 218.531 101.34C218.547 100.511 218.547 100.511 218.563 99.6658C218.597 97.9079 218.627 96.15 218.657 94.392C218.679 93.1974 218.701 92.0027 218.724 90.808C218.779 87.8854 218.831 84.9627 218.881 82.04C222.429 82.04 225.977 82.04 229.633 82.04C229.684 85.9473 229.721 89.8544 229.745 93.7619C229.756 95.0893 229.77 96.4166 229.787 97.7439C229.812 99.6593 229.824 101.574 229.833 103.49C229.843 104.077 229.854 104.664 229.865 105.269C229.867 111.549 227.838 116.735 223.639 121.414C217.156 127.652 208.924 128.424 200.421 128.278C193.547 128.018 187.171 125.515 182.081 120.792C176.984 115.198 175.612 108.836 175.723 101.44C175.725 100.881 175.727 100.321 175.729 99.7445C175.738 97.9815 175.757 96.2189 175.777 94.456C175.785 93.2507 175.792 92.0454 175.798 90.84C175.813 87.9065 175.843 84.9736 175.873 82.04Z" fill="#D3F1A7"/>
<path d="M0.256836 30.3281C17.3218 30.3281 34.3868 30.3281 51.9688 30.3281C51.9688 33.3694 51.9688 36.4107 51.9688 39.5441C45.2104 39.5441 38.452 39.5441 31.4888 39.5441C31.4888 51.3713 31.4888 63.1985 31.4888 75.3841C27.9407 75.3841 24.3925 75.3841 20.7368 75.3841C20.7368 63.5569 20.7368 51.7297 20.7368 39.5441C13.9784 39.5441 7.22004 39.5441 0.256836 39.5441C0.256836 36.5028 0.256836 33.4616 0.256836 30.3281Z" fill="#D9EFB9"/>
<path d="M366.849 40.0562C368.962 47.8025 368.793 54.6928 365.313 62.0722C364.237 63.8874 363.044 65.5443 361.729 67.1922C361.513 67.4852 361.297 67.7782 361.075 68.0802C357.323 72.9822 350.771 76.3073 344.717 77.1502C335.964 77.7639 329.457 76.6088 322.305 71.2882C321.777 70.908 321.249 70.5278 320.705 70.1362C317.511 67.0807 314.989 63.2156 313.601 59.0002C313.601 58.4933 313.601 57.9864 313.601 57.4642C315.285 56.8642 316.971 56.2679 318.657 55.6722C319.137 55.5012 319.617 55.3303 320.111 55.1542C320.57 54.9925 321.028 54.8308 321.501 54.6642C321.925 54.514 322.348 54.3639 322.785 54.2092C323.841 53.8802 323.841 53.8802 324.865 53.8802C326.401 56.7602 326.401 56.7602 326.401 58.4882C326.739 58.4882 327.077 58.4882 327.425 58.4882C328.769 59.7042 328.769 59.7042 329.985 61.0482C329.985 61.3861 329.985 61.724 329.985 62.0722C336.026 64.69 340.861 65.5077 347.109 63.1322C351.073 61.4163 352.961 59.1129 354.575 55.1482C355.719 51.7222 355.987 48.6999 355.073 45.1762C355.242 44.6693 355.411 44.1624 355.585 43.6402C356.723 43.0962 356.723 43.0962 358.177 42.6162C358.938 42.3588 358.938 42.3588 359.715 42.0962C360.211 41.9298 360.706 41.7635 361.217 41.5922C361.986 41.2969 362.755 40.9987 363.521 40.6962C365.313 40.0562 365.313 40.0562 366.849 40.0562Z" fill="white"/>
</svg>
