<svg width="32" height="35" viewBox="0 0 32 35" fill="none" xmlns="http://www.w3.org/2000/svg">
<path d="M4 31H10V21C10 20.4333 10.192 19.9587 10.576 19.576C10.96 19.1933 11.4347 19.0013 12 19H20C20.5667 19 21.042 19.192 21.426 19.576C21.81 19.96 22.0013 20.4347 22 21V31H28V13L16 4L4 13V31ZM0 31V13C0 12.3667 0.142 11.7667 0.426 11.2C0.71 10.6333 1.10133 10.1667 1.6 9.8L13.6 0.8C14.3 0.266667 15.1 0 16 0C16.9 0 17.7 0.266667 18.4 0.8L30.4 9.8C30.9 10.1667 31.292 10.6333 31.576 11.2C31.86 11.7667 32.0013 12.3667 32 13V31C32 32.1 31.608 33.042 30.824 33.826C30.04 34.61 29.0987 35.0013 28 35H20C19.4333 35 18.9587 34.808 18.576 34.424C18.1933 34.04 18.0013 33.5653 18 33V23H14V33C14 33.5667 13.808 34.042 13.424 34.426C13.04 34.81 12.5653 35.0013 12 35H4C2.9 35 1.95867 34.6087 1.176 33.826C0.393333 33.0433 0.00133333 32.1013 0 31Z" fill="currentColor"/>
</svg>
