<svg width="45" height="45" viewBox="0 0 45 45" fill="none" xmlns="http://www.w3.org/2000/svg">
<path d="M22.5792 22.4312C22.1317 22.4312 21.6943 22.5637 21.3222 22.8119C20.9502 23.0601 20.6602 23.413 20.4889 23.8258C20.3177 24.2386 20.2729 24.6928 20.3602 25.1311C20.4475 25.5693 20.663 25.9718 20.9794 26.2878C21.2958 26.6037 21.6989 26.8189 22.1378 26.9061C22.5767 26.9933 23.0316 26.9485 23.445 26.7775C23.8584 26.6065 24.2117 26.317 24.4603 25.9455C24.709 25.5739 24.8416 25.1371 24.8416 24.6903C24.8416 24.0912 24.6033 23.5165 24.179 23.0929C23.7547 22.6692 23.1792 22.4312 22.5792 22.4312ZM44.5477 17.0995C43.3216 12.2146 40.4961 7.87877 36.52 4.78071C32.5439 1.68266 27.6452 0 22.6018 0C17.5585 0 12.6597 1.68266 8.68359 4.78071C4.70749 7.87877 1.88202 12.2146 0.655958 17.0995C-0.218652 20.6003 -0.218652 24.262 0.655958 27.7628C1.63176 31.7684 3.68658 35.4311 6.59784 38.3541C9.50911 41.277 13.1658 43.3488 17.1719 44.3451C20.6625 45.2183 24.3149 45.2183 27.8055 44.3451C31.8073 43.358 35.4629 41.2979 38.3777 38.3874C41.2924 35.4769 43.3555 31.8265 44.344 27.8306C45.2186 24.3298 45.2186 20.6681 44.344 17.1673L44.5477 17.0995ZM22.5792 4.35782C26.1822 4.36061 29.7023 5.4371 32.689 7.44945C35.6757 9.46181 37.9929 12.3185 39.344 15.6537H5.81436C7.16548 12.3185 9.48271 9.46181 12.4694 7.44945C15.456 5.4371 18.9762 4.36061 22.5792 4.35782ZM4.47951 22.4312C4.48645 21.6756 4.53934 20.9212 4.63789 20.172H9.00443V24.6903H4.63789C4.53934 23.9412 4.48645 23.1867 4.47951 22.4312ZM15.7918 39.1716C13.5454 38.2626 11.5047 36.9124 9.79077 35.201C8.07685 33.4896 6.72464 31.4518 5.81436 29.2087H11.2669C12.467 29.2087 13.6179 29.6847 14.4665 30.5321C15.3151 31.3794 15.7918 32.5287 15.7918 33.727V39.1716ZM24.8416 40.3464C24.0914 40.4448 23.3358 40.4976 22.5792 40.5045C21.8225 40.4976 21.067 40.4448 20.3167 40.3464V35.9862H24.8416V40.3464ZM25.1584 31.4678H20C19.5937 29.9138 18.7801 28.496 17.6428 27.3604C16.5055 26.2247 15.0856 25.4123 13.5293 25.0066V20.172H31.629V25.0066C30.0728 25.4123 28.6529 26.2247 27.5156 27.3604C26.3783 28.496 25.5646 29.9138 25.1584 31.4678ZM29.3666 39.1716V33.727C29.3666 32.5287 29.8433 31.3794 30.6919 30.5321C31.5405 29.6847 32.6914 29.2087 33.8915 29.2087H39.344C38.4337 31.4518 37.0815 33.4896 35.3676 35.201C33.6537 36.9124 31.613 38.2626 29.3666 39.1716ZM40.5205 24.6903H36.1539V20.172H40.5205C40.619 20.9212 40.6719 21.6756 40.6789 22.4312C40.6719 23.1867 40.619 23.9412 40.5205 24.6903Z" fill="white"/>
</svg>
