<svg width="45" height="45" viewBox="0 0 45 45" fill="none" xmlns="http://www.w3.org/2000/svg">
<path d="M20.1833 21.3V15.8333C20.1833 14.4667 21.2365 13.3333 22.5065 13.3333C23.2723 13.3333 24.0209 13.089 24.6577 12.6311C25.2944 12.1733 25.7907 11.5225 26.0838 10.7612C26.3768 9.99982 26.4535 9.16204 26.3041 8.35379C26.1547 7.54554 25.7859 6.80311 25.2444 6.22039C24.7029 5.63767 24.013 5.24083 23.2619 5.08006C22.5108 4.91929 21.7323 5.0018 21.0247 5.31717C20.3172 5.63253 19.7125 6.16659 19.287 6.85179C18.8616 7.537 18.6345 8.34258 18.6345 9.16667C18.6345 10.5333 17.5813 11.6667 16.3113 11.6667C15.0413 11.6667 13.9881 10.5333 13.9881 9.16667C13.9881 4.1 17.7981 0 22.5065 0C27.2149 0 31.0249 4.1 31.0249 9.16667C31.0249 13.3667 28.3919 16.9 24.8297 18V21.3L43.5702 37.6C44.1911 38.1431 44.6405 38.8799 44.8564 39.7091C45.0723 40.5382 45.0442 41.419 44.7759 42.2303C44.5076 43.0415 44.0124 43.7434 43.3583 44.2394C42.7041 44.7354 41.9233 45.0011 41.1231 45H3.8899C2.71282 45 1.59768 44.4333 0.854254 43.4667C-0.477715 41.6667 -0.229907 39.0333 1.4428 37.6L20.1833 21.3ZM38.9548 40L22.5065 25.7L6.05823 40H38.9548Z" fill="white"/>
</svg>
