<svg width="45" height="17" viewBox="0 0 45 17" fill="none" xmlns="http://www.w3.org/2000/svg">
<path d="M8.1806 2.89471H4.26769C4.10525 2.89471 3.94947 2.96703 3.83461 3.09576C3.71976 3.22449 3.65523 3.39909 3.65523 3.58114V6.67301C3.65523 6.85506 3.71976 7.02966 3.83461 7.15839C3.94947 7.28712 4.10525 7.35944 4.26769 7.35944H7.46403C7.62646 7.35944 7.78224 7.43176 7.8971 7.56049C8.01196 7.68922 8.07648 7.86382 8.07648 8.04587V9.59213C8.07648 9.77418 8.01196 9.94877 7.8971 10.0775C7.78224 10.2062 7.62646 10.2786 7.46403 10.2786H4.26757C4.10514 10.2786 3.94936 10.3509 3.8345 10.4796C3.71964 10.6083 3.65512 10.7829 3.65512 10.965V16.3136C3.65512 16.4956 3.59059 16.6702 3.47573 16.7989C3.36087 16.9277 3.20509 17 3.04266 17H0.612457C0.450023 17 0.294242 16.9277 0.179384 16.7989C0.0645264 16.6702 0 16.4956 0 16.3136V0.686433C0 0.50438 0.0645264 0.329782 0.179384 0.201051C0.294242 0.0723198 0.450023 3.81714e-10 0.612457 3.81711e-10H8.37613C8.46394 -3.28161e-06 8.55073 0.0211577 8.6306 0.0620456C8.71048 0.102934 8.78157 0.162592 8.83907 0.236979C8.89656 0.311365 8.93911 0.39874 8.96384 0.493176C8.98856 0.587612 8.99487 0.686901 8.98235 0.784312L8.78671 2.30603C8.76573 2.46944 8.69291 2.61891 8.58159 2.72703C8.47027 2.83515 8.3279 2.89468 8.1806 2.89471ZM15.6713 3.81711e-10C19.808 3.81711e-10 21.9309 1.64362 21.9309 5.17608C21.9309 7.18097 21.1718 8.47337 19.606 9.46234C19.3043 9.65288 19.1971 10.0803 19.3743 10.4137L22.3213 15.9628C22.5644 16.4205 22.2698 16.9999 21.7947 16.9999H19.1464C19.0355 16.9999 18.9266 16.9661 18.8315 16.9021C18.7363 16.8382 18.6585 16.7465 18.6062 16.6368L15.8661 10.8868C15.8139 10.7771 15.736 10.6854 15.6409 10.6215C15.5457 10.5575 15.4369 10.5238 15.3259 10.5238H14.9267C14.7643 10.5238 14.6085 10.5961 14.4936 10.7248C14.3788 10.8535 14.3142 11.0281 14.3142 11.2102V16.3134C14.3142 16.4955 14.2497 16.6701 14.1349 16.7988C14.02 16.9275 13.8642 16.9999 13.7018 16.9999H11.2716C11.1091 16.9999 10.9534 16.9275 10.8385 16.7988C10.7236 16.6701 10.6591 16.4955 10.6591 16.3134V0.686433C10.6591 0.50438 10.7236 0.329782 10.8385 0.201051C10.9534 0.0723198 11.1091 3.81714e-10 11.2716 3.81711e-10H15.6713ZM15.8245 7.72732C17.3567 7.72732 18.1884 6.9669 18.1884 5.17608C18.1884 3.55699 17.3348 2.84564 15.5838 2.84564H14.9268C14.7644 2.84564 14.6086 2.91796 14.4937 3.04669C14.3789 3.17542 14.3144 3.35002 14.3144 3.53208V7.04089C14.3144 7.22294 14.3789 7.39753 14.4937 7.52627C14.6086 7.655 14.7644 7.72732 14.9268 7.72732H15.8245ZM32.6066 2.89471H28.431C28.2686 2.89471 28.1128 2.96703 27.9979 3.09576C27.8831 3.22449 27.8186 3.39909 27.8186 3.58114V6.25581C27.8186 6.43786 27.8831 6.61246 27.9979 6.74119C28.1128 6.86992 28.2686 6.94224 28.431 6.94224H31.8461C32.0086 6.94224 32.1644 7.01457 32.2792 7.1433C32.3941 7.27203 32.4586 7.44662 32.4586 7.62867V9.10145C32.4586 9.28351 32.3941 9.4581 32.2792 9.58683C32.1644 9.71557 32.0086 9.78788 31.8461 9.78788H28.431C28.2686 9.78788 28.1128 9.86021 27.9979 9.98894C27.8831 10.1177 27.8186 10.2923 27.8186 10.4743V13.3698C27.8186 13.5518 27.8831 13.7264 27.9979 13.8552C28.1128 13.9839 28.2686 14.0562 28.431 14.0562H32.8968C33.0593 14.0562 33.2151 14.1285 33.3299 14.2573C33.4448 14.386 33.5093 14.5606 33.5093 14.7427V16.3134C33.5093 16.4955 33.4448 16.6701 33.3299 16.7988C33.2151 16.9275 33.0593 16.9999 32.8968 16.9999H24.7759C24.6135 16.9999 24.4577 16.9275 24.3428 16.7988C24.228 16.6701 24.1634 16.4955 24.1634 16.3134V0.686433C24.1634 0.50438 24.228 0.329782 24.3428 0.201051C24.4577 0.0723198 24.6135 3.81714e-10 24.7759 3.81711e-10H32.8023C32.8901 -3.28161e-06 32.9769 0.0211577 33.0567 0.0620456C33.1366 0.102934 33.2077 0.162592 33.2652 0.236979C33.3227 0.311365 33.3652 0.39874 33.39 0.493176C33.4147 0.587612 33.421 0.686901 33.4085 0.784312L33.2128 2.30603C33.1918 2.46947 33.119 2.61895 33.0077 2.72707C32.8963 2.83519 32.7539 2.89471 32.6066 2.89471ZM44.0973 2.89471H39.9217C39.7593 2.89471 39.6035 2.96703 39.4886 3.09576C39.3738 3.22449 39.3093 3.39909 39.3093 3.58114V6.25581C39.3093 6.43786 39.3738 6.61246 39.4886 6.74119C39.6035 6.86992 39.7593 6.94224 39.9217 6.94224H43.3368C43.4993 6.94224 43.6551 7.01457 43.7699 7.1433C43.8848 7.27203 43.9493 7.44662 43.9493 7.62867V9.10145C43.9493 9.28351 43.8848 9.4581 43.7699 9.58683C43.6551 9.71557 43.4993 9.78788 43.3368 9.78788H39.9217C39.7593 9.78788 39.6035 9.86021 39.4886 9.98894C39.3738 10.1177 39.3093 10.2923 39.3093 10.4743V13.3698C39.3093 13.5518 39.3738 13.7264 39.4886 13.8552C39.6035 13.9839 39.7593 14.0562 39.9217 14.0562H44.3875C44.55 14.0562 44.7058 14.1285 44.8206 14.2573C44.9355 14.386 45 14.5606 45 14.7427V16.3134C45 16.4955 44.9355 16.6701 44.8206 16.7988C44.7058 16.9275 44.55 16.9999 44.3875 16.9999H36.2666C36.1042 16.9999 35.9484 16.9275 35.8335 16.7988C35.7187 16.6701 35.6541 16.4955 35.6541 16.3134V0.686433C35.6541 0.50438 35.7187 0.329782 35.8335 0.201051C35.9484 0.0723198 36.1042 3.81714e-10 36.2666 3.81711e-10H44.293C44.3808 -3.28161e-06 44.4676 0.0211577 44.5474 0.0620456C44.6273 0.102934 44.6984 0.162592 44.7559 0.236979C44.8134 0.311365 44.8559 0.39874 44.8807 0.493176C44.9054 0.587612 44.9117 0.686901 44.8992 0.784312L44.7035 2.30603C44.6825 2.46947 44.6097 2.61895 44.4984 2.72707C44.387 2.83519 44.2446 2.89471 44.0973 2.89471Z" fill="white"/>
</svg>
