<svg width="45" height="46" viewBox="0 0 45 46" fill="none" xmlns="http://www.w3.org/2000/svg">
<path d="M7.625 28.967H5.625C4.90804 28.967 4.20746 28.754 3.61133 28.3557C3.01537 27.9575 2.55076 27.3919 2.27637 26.7297C2.00203 26.0674 1.92952 25.3381 2.06934 24.635C2.20921 23.9318 2.55456 23.2855 3.06152 22.7786C3.56849 22.2716 4.21479 21.9262 4.91797 21.7864C5.62108 21.6466 6.35038 21.7191 7.0127 21.9934C7.67484 22.2678 8.24046 22.7324 8.63867 23.3284C9.03699 23.9245 9.25 24.6251 9.25 25.342V32.967H35.75V25.342C35.75 24.6251 35.963 23.9245 36.3613 23.3284C36.7595 22.7324 37.3252 22.2678 37.9873 21.9934C38.6496 21.7191 39.3789 21.6466 40.082 21.7864C40.7852 21.9262 41.4315 22.2716 41.9385 22.7786C42.4454 23.2855 42.7908 23.9318 42.9307 24.635C43.0705 25.3381 42.998 26.0674 42.7236 26.7297C42.4492 27.3919 41.9846 27.9575 41.3887 28.3557C40.7925 28.754 40.092 28.967 39.375 28.967H37.375V43.0295H7.625V28.967Z" stroke="white" stroke-width="4"/>
<path d="M22.4995 2C26.2345 2 29.8329 3.40549 32.5796 5.93652C34.8449 8.024 36.3932 10.7512 37.0376 13.7314C34.7555 14.1909 32.6412 15.3165 30.9761 16.9912C28.9096 19.0696 27.6925 21.8348 27.5464 24.748H17.4536C17.3075 21.8348 16.0903 19.0696 14.0239 16.9912C12.3584 15.3161 10.2432 14.1907 7.96045 13.7314C8.60475 10.7513 10.1542 8.02403 12.4194 5.93652C15.166 3.40557 18.7646 2.0001 22.4995 2Z" stroke="white" stroke-width="4"/>
</svg>
