<svg width="45" height="45" viewBox="0 0 45 45" fill="none" xmlns="http://www.w3.org/2000/svg">
<path d="M22.5 0C10.0913 0 0 10.0935 0 22.5C0 34.9065 10.0935 45 22.5 45C34.9065 45 45 34.9065 45 22.5C45 10.0935 34.9065 0 22.5 0ZM37.413 32.5688C35.5474 30.3372 34.3412 27.6295 33.93 24.75H40.3447C39.996 27.5506 38.9916 30.2294 37.413 32.5688ZM4.65525 24.75H11.0678C10.6498 27.6268 9.44438 30.3321 7.58475 32.5665C6.00561 30.2284 5.0018 27.55 4.65525 24.75ZM7.587 12.4313C9.45105 14.6635 10.6564 17.371 11.0678 20.25H4.65525C5.00196 17.449 6.00659 14.7697 7.587 12.4313ZM24.75 20.25V4.65525C28.3371 5.10818 31.7035 6.63526 34.407 9.036C31.6043 12.1596 29.8456 16.0797 29.376 20.25H24.75ZM20.25 20.25H15.624C15.1558 16.0802 13.396 12.161 10.5907 9.0405C13.294 6.63712 16.6614 5.10833 20.25 4.65525V20.25ZM15.6172 24.75H20.25V40.3447C16.6682 39.8924 13.3064 38.3695 10.6042 35.9753C13.3969 32.8426 15.1484 28.9204 15.6172 24.75ZM24.75 24.75H29.3738C29.8428 28.9203 31.6025 32.8399 34.407 35.9617C31.7048 38.3649 28.3379 39.893 24.75 40.3447V24.75ZM33.93 20.25C34.3451 17.3723 35.5509 14.6664 37.413 12.4335C38.9921 14.7716 39.996 17.45 40.3425 20.25H33.93Z" fill="white"/>
</svg>
