<svg width="49" height="49" viewBox="0 0 49 49" fill="none" xmlns="http://www.w3.org/2000/svg">
<path d="M24.5 24.5V38M2.2168 21.3837C2.03849 21.7257 1.9685 22.0976 2.01304 22.4664C2.05757 22.8352 2.21526 23.1894 2.47209 23.4978C2.72893 23.8061 3.07696 24.0589 3.48528 24.2337C3.8936 24.4086 4.34957 24.5 4.81271 24.5H44.1873C44.6504 24.5 45.1064 24.4086 45.5147 24.2337C45.923 24.0589 46.2711 23.8061 46.5279 23.4978C46.7847 23.1894 46.9424 22.8352 46.987 22.4664C47.0315 22.0976 46.9615 21.7257 46.7832 21.3837L38.1292 4.76975C37.7022 3.94963 36.9814 3.24898 36.0574 2.75609C35.1335 2.26319 34.0479 2.00011 32.9374 2H16.0626C14.9524 1.99993 13.867 2.26267 12.9431 2.75515C12.0192 3.24763 11.2982 3.94781 10.8708 4.7675L2.2168 21.3837ZM13.2501 42.5C13.2501 41.3065 13.8427 40.1619 14.8976 39.318C15.9525 38.4741 17.3832 38 18.8751 38H30.1249C31.6168 38 33.0475 38.4741 34.1024 39.318C35.1573 40.1619 35.7499 41.3065 35.7499 42.5V44.75C35.7499 45.3467 35.4536 45.919 34.9261 46.341C34.3987 46.7629 33.6833 47 32.9374 47H16.0626C15.3167 47 14.6013 46.7629 14.0739 46.341C13.5464 45.919 13.2501 45.3467 13.2501 44.75V42.5Z" stroke="white" stroke-width="4" stroke-linecap="round" stroke-linejoin="round"/>
</svg>
