<svg width="49" height="49" viewBox="0 0 49 49" fill="none" xmlns="http://www.w3.org/2000/svg">
<path d="M16.8284 37H39.1716C40.4677 36.9997 41.725 36.5164 42.7358 35.6299C43.7465 34.7433 44.4503 33.5066 44.7309 32.124L47 21H9L11.2691 32.124C11.5497 33.5066 12.2535 34.7433 13.2642 35.6299C14.275 36.5164 15.5323 36.9997 16.8284 37Z" stroke="white" stroke-width="4" stroke-linecap="round" stroke-linejoin="round"/>
<path d="M2 9.69425H5.65505C5.83287 9.69007 6.0065 9.75152 6.14607 9.86803C6.28563 9.98453 6.3824 10.1488 6.4197 10.3326L7.50169 15.6371L11 31M30.0858 3.63429C30.0833 3.40004 30.129 3.16802 30.2197 2.9543C30.3105 2.74058 30.4442 2.55027 30.6115 2.39656C30.7788 2.24284 30.9757 2.12939 31.1886 2.06408C31.4015 1.99877 31.6253 1.98315 31.8445 2.0183C36.0864 2.75553 39.9413 5.0648 42.7184 8.53231C45.4955 11.9998 47.0133 16.399 46.9999 20.9415H30.0858V3.63429Z" stroke="white" stroke-width="4" stroke-linecap="round" stroke-linejoin="round"/>
<path d="M40 47C42.7614 47 45 44.7614 45 42C45 39.2386 42.7614 37 40 37C37.2386 37 35 39.2386 35 42C35 44.7614 37.2386 47 40 47Z" stroke="white" stroke-width="4" stroke-linecap="round" stroke-linejoin="round"/>
<path d="M16 47C18.7614 47 21 44.7614 21 42C21 39.2386 18.7614 37 16 37C13.2386 37 11 39.2386 11 42C11 44.7614 13.2386 47 16 47Z" stroke="white" stroke-width="4" stroke-linecap="round" stroke-linejoin="round"/>
</svg>
