<svg width="45" height="45" viewBox="0 0 45 45" fill="none" xmlns="http://www.w3.org/2000/svg">
<path d="M27 13.5H29.25C29.8467 13.5 30.419 13.2629 30.841 12.841C31.2629 12.419 31.5 11.8467 31.5 11.25C31.5 10.6533 31.2629 10.081 30.841 9.65901C30.419 9.23705 29.8467 9 29.25 9H27C26.4033 9 25.831 9.23705 25.409 9.65901C24.9871 10.081 24.75 10.6533 24.75 11.25C24.75 11.8467 24.9871 12.419 25.409 12.841C25.831 13.2629 26.4033 13.5 27 13.5ZM27 22.5H29.25C29.8467 22.5 30.419 22.2629 30.841 21.841C31.2629 21.419 31.5 20.8467 31.5 20.25C31.5 19.6533 31.2629 19.081 30.841 18.659C30.419 18.2371 29.8467 18 29.25 18H27C26.4033 18 25.831 18.2371 25.409 18.659C24.9871 19.081 24.75 19.6533 24.75 20.25C24.75 20.8467 24.9871 21.419 25.409 21.841C25.831 22.2629 26.4033 22.5 27 22.5ZM15.75 13.5H18C18.5967 13.5 19.169 13.2629 19.591 12.841C20.0129 12.419 20.25 11.8467 20.25 11.25C20.25 10.6533 20.0129 10.081 19.591 9.65901C19.169 9.23705 18.5967 9 18 9H15.75C15.1533 9 14.581 9.23705 14.159 9.65901C13.7371 10.081 13.5 10.6533 13.5 11.25C13.5 11.8467 13.7371 12.419 14.159 12.841C14.581 13.2629 15.1533 13.5 15.75 13.5ZM15.75 22.5H18C18.5967 22.5 19.169 22.2629 19.591 21.841C20.0129 21.419 20.25 20.8467 20.25 20.25C20.25 19.6533 20.0129 19.081 19.591 18.659C19.169 18.2371 18.5967 18 18 18H15.75C15.1533 18 14.581 18.2371 14.159 18.659C13.7371 19.081 13.5 19.6533 13.5 20.25C13.5 20.8467 13.7371 21.419 14.159 21.841C14.581 22.2629 15.1533 22.5 15.75 22.5ZM42.75 40.5H40.5V2.25C40.5 1.65326 40.2629 1.08097 39.841 0.65901C39.419 0.237053 38.8467 0 38.25 0H6.75C6.15326 0 5.58097 0.237053 5.15901 0.65901C4.73705 1.08097 4.5 1.65326 4.5 2.25V40.5H2.25C1.65326 40.5 1.08097 40.7371 0.65901 41.159C0.237053 41.581 0 42.1533 0 42.75C0 43.3467 0.237053 43.919 0.65901 44.341C1.08097 44.7629 1.65326 45 2.25 45H42.75C43.3467 45 43.919 44.7629 44.341 44.341C44.7629 43.919 45 43.3467 45 42.75C45 42.1533 44.7629 41.581 44.341 41.159C43.919 40.7371 43.3467 40.5 42.75 40.5ZM24.75 40.5H20.25V31.5H24.75V40.5ZM36 40.5H29.25V29.25C29.25 28.6533 29.0129 28.081 28.591 27.659C28.169 27.2371 27.5967 27 27 27H18C17.4033 27 16.831 27.2371 16.409 27.659C15.9871 28.081 15.75 28.6533 15.75 29.25V40.5H9V4.5H36V40.5Z" fill="white"/>
</svg>
