<svg width="45" height="45" viewBox="0 0 45 45" fill="none" xmlns="http://www.w3.org/2000/svg">
<path d="M40.5 9.47368C41.805 9.47368 42.8625 9.94737 43.695 10.8711C44.55 11.8421 45 12.9079 45 14.2105V40.2632C45 41.5658 44.55 42.6316 43.695 43.6026C42.8625 44.5263 41.805 45 40.5 45H4.5C3.195 45 2.1375 44.5263 1.305 43.6026C0.45 42.6316 0 41.5658 0 40.2632V14.2105C0 12.9079 0.45 11.8421 1.305 10.8711C2.1375 9.94737 3.195 9.47368 4.5 9.47368H13.5V4.73684C13.5 3.36316 13.95 2.25 14.805 1.37368C15.6375 0.473684 16.695 0 18 0H27C28.305 0 29.3625 0.473684 30.195 1.37368C31.05 2.25 31.5 3.36316 31.5 4.73684V9.47368H40.5ZM4.5 14.2105V40.2632H40.5V14.2105H4.5ZM27 9.47368V4.73684H18V9.47368H27Z" fill="white"/>
</svg>
